<?xml version="1.0" encoding="utf-8"?>
<!-- Generator: Adobe Illustrator 16.0.0, SVG Export Plug-In . SVG Version: 6.00 Build 0)  -->
<!DOCTYPE svg PUBLIC "-//W3C//DTD SVG 1.1//EN" "http://www.w3.org/Graphics/SVG/1.1/DTD/svg11.dtd">
<svg version="1.1" id="Layer_1" xmlns="http://www.w3.org/2000/svg" xmlns:xlink="http://www.w3.org/1999/xlink" x="0px" y="0px"
	 width="176.087px" height="15.109px" viewBox="0 0 176.087 15.109" enable-background="new 0 0 176.087 15.109"
	 xml:space="preserve">
<g>
	<rect y="1.722" fill="none" width="176.087" height="13.043"/>
	<path fill="#333333" d="M1.066,1.717h0.957v4.204c0.387-0.51,0.813-0.892,1.278-1.145S4.27,4.397,4.812,4.397
		c0.556,0,1.049,0.141,1.48,0.424s0.749,0.662,0.954,1.138s0.308,1.223,0.308,2.239v3.828H6.597V8.478
		c0-0.857-0.034-1.429-0.103-1.716C6.375,6.27,6.16,5.9,5.848,5.651S5.127,5.279,4.621,5.279c-0.579,0-1.097,0.191-1.555,0.574
		S2.306,6.71,2.16,7.275C2.069,7.64,2.023,8.314,2.023,9.298v2.728H1.066V1.717z"/>
	<path fill="#333333" d="M13.125,4.397c1.146,0,2.095,0.415,2.849,1.244c0.685,0.756,1.027,1.652,1.027,2.687
		c0,1.039-0.362,1.947-1.085,2.724s-1.654,1.166-2.791,1.166c-1.142,0-2.074-0.389-2.797-1.166S9.242,9.367,9.242,8.328
		c0-1.03,0.342-1.923,1.027-2.68C11.022,4.814,11.975,4.397,13.125,4.397z M13.122,5.333c-0.796,0-1.479,0.294-2.051,0.882
		s-0.857,1.299-0.857,2.133c0,0.538,0.13,1.039,0.391,1.504s0.613,0.824,1.056,1.077c0.444,0.253,0.931,0.379,1.461,0.379
		c0.53,0,1.018-0.126,1.461-0.379c0.443-0.253,0.795-0.612,1.056-1.077s0.391-0.966,0.391-1.504c0-0.834-0.287-1.545-0.861-2.133
		C14.595,5.627,13.913,5.333,13.122,5.333z"/>
	<path fill="#333333" d="M17.767,4.588h0.984l2.28,5.4l2.373-5.4h0.173l2.389,5.4l2.324-5.4h0.995l-3.231,7.438h-0.178l-2.378-5.325
		l-2.377,5.325h-0.178L17.767,4.588z"/>
	<path fill="#333333" d="M36.668,9.558l0.807,0.424c-0.265,0.52-0.57,0.939-0.917,1.258s-0.736,0.562-1.17,0.728
		s-0.924,0.25-1.471,0.25c-1.213,0-2.162-0.397-2.846-1.193s-1.026-1.694-1.026-2.697c0-0.943,0.29-1.784,0.869-2.522
		c0.734-0.939,1.717-1.408,2.949-1.408c1.268,0,2.281,0.481,3.038,1.442c0.539,0.679,0.812,1.527,0.821,2.543h-6.692
		c0.018,0.864,0.294,1.572,0.828,2.125s1.193,0.829,1.978,0.829c0.378,0,0.747-0.066,1.105-0.197
		c0.358-0.132,0.663-0.307,0.914-0.524C36.104,10.396,36.376,10.044,36.668,9.558z M36.668,7.555
		c-0.128-0.51-0.313-0.918-0.558-1.224c-0.244-0.305-0.567-0.551-0.968-0.738s-0.824-0.28-1.266-0.28
		c-0.73,0-1.357,0.235-1.882,0.704c-0.383,0.342-0.673,0.854-0.869,1.538H36.668z"/>
	<path fill="#333333" d="M40.558,10.522c0.232,0,0.431,0.082,0.595,0.246s0.246,0.365,0.246,0.602c0,0.232-0.082,0.432-0.246,0.598
		s-0.362,0.25-0.595,0.25s-0.431-0.083-0.595-0.25s-0.246-0.366-0.246-0.598c0-0.237,0.082-0.438,0.246-0.602
		S40.325,10.522,40.558,10.522z"/>
	<path fill="#333333" d="M50.791,4.588v7.438h-0.943v-1.278c-0.401,0.488-0.851,0.854-1.35,1.101s-1.045,0.369-1.637,0.369
		c-1.053,0-1.952-0.382-2.697-1.145s-1.118-1.692-1.118-2.786c0-1.071,0.376-1.987,1.128-2.748s1.657-1.142,2.714-1.142
		c0.611,0,1.163,0.13,1.658,0.39s0.929,0.649,1.302,1.169V4.588H50.791z M46.966,5.32c-0.533,0-1.024,0.131-1.475,0.393
		s-0.809,0.629-1.075,1.103c-0.266,0.473-0.399,0.974-0.399,1.502c0,0.523,0.134,1.024,0.403,1.502
		c0.269,0.478,0.629,0.85,1.082,1.116c0.453,0.266,0.939,0.399,1.458,0.399c0.523,0,1.02-0.132,1.489-0.396
		c0.469-0.264,0.829-0.622,1.082-1.072c0.252-0.451,0.379-0.958,0.379-1.523c0-0.86-0.283-1.58-0.85-2.158S47.795,5.32,46.966,5.32z
		"/>
	<path fill="#333333" d="M52.801,1.717h0.957v10.309h-0.957V1.717z"/>
	<path fill="#333333" d="M63.157,4.588v7.438h-0.943v-1.278c-0.401,0.488-0.851,0.854-1.35,1.101s-1.045,0.369-1.637,0.369
		c-1.053,0-1.952-0.382-2.697-1.145s-1.118-1.692-1.118-2.786c0-1.071,0.376-1.987,1.128-2.748s1.657-1.142,2.714-1.142
		c0.611,0,1.163,0.13,1.658,0.39s0.929,0.649,1.302,1.169V4.588H63.157z M59.333,5.32c-0.533,0-1.024,0.131-1.475,0.393
		s-0.809,0.629-1.075,1.103c-0.266,0.473-0.399,0.974-0.399,1.502c0,0.523,0.134,1.024,0.403,1.502
		c0.269,0.478,0.629,0.85,1.082,1.116c0.453,0.266,0.939,0.399,1.458,0.399c0.523,0,1.02-0.132,1.489-0.396
		c0.469-0.264,0.829-0.622,1.082-1.072c0.252-0.451,0.379-0.958,0.379-1.523c0-0.86-0.283-1.58-0.85-2.158S60.161,5.32,59.333,5.32z
		"/>
	<path fill="#333333" d="M65.311,4.588h0.957v1.333c0.383-0.51,0.807-0.892,1.271-1.145s0.971-0.379,1.518-0.379
		c0.556,0,1.049,0.141,1.48,0.424s0.749,0.663,0.954,1.142s0.308,1.224,0.308,2.235v3.828h-0.957V8.478
		c0-0.857-0.036-1.429-0.106-1.716C70.624,6.27,70.411,5.9,70.096,5.651s-0.725-0.373-1.23-0.373c-0.579,0-1.098,0.191-1.556,0.574
		s-0.76,0.857-0.906,1.422c-0.091,0.369-0.137,1.043-0.137,2.023v2.728h-0.957V4.588z"/>
	<path fill="#333333" d="M73.849,4.588h0.957v1.333c0.383-0.51,0.807-0.892,1.271-1.145s0.971-0.379,1.518-0.379
		c0.556,0,1.049,0.141,1.48,0.424s0.749,0.663,0.954,1.142s0.308,1.224,0.308,2.235v3.828h-0.957V8.478
		c0-0.857-0.036-1.429-0.106-1.716C79.162,6.27,78.949,5.9,78.634,5.651s-0.725-0.373-1.23-0.373c-0.579,0-1.098,0.191-1.556,0.574
		s-0.76,0.857-0.906,1.422c-0.091,0.369-0.137,1.043-0.137,2.023v2.728h-0.957V4.588z"/>
	<path fill="#333333" d="M89.797,4.588v7.438h-0.943v-1.278c-0.401,0.488-0.851,0.854-1.35,1.101s-1.045,0.369-1.637,0.369
		c-1.053,0-1.952-0.382-2.697-1.145s-1.118-1.692-1.118-2.786c0-1.071,0.376-1.987,1.128-2.748s1.657-1.142,2.714-1.142
		c0.611,0,1.163,0.13,1.658,0.39s0.929,0.649,1.302,1.169V4.588H89.797z M85.972,5.32c-0.533,0-1.024,0.131-1.475,0.393
		s-0.809,0.629-1.075,1.103c-0.266,0.473-0.399,0.974-0.399,1.502c0,0.523,0.134,1.024,0.403,1.502
		c0.269,0.478,0.629,0.85,1.082,1.116c0.453,0.266,0.939,0.399,1.458,0.399c0.523,0,1.02-0.132,1.489-0.396
		c0.469-0.264,0.829-0.622,1.082-1.072c0.252-0.451,0.379-0.958,0.379-1.523c0-0.86-0.283-1.58-0.85-2.158S86.801,5.32,85.972,5.32z
		"/>
	<path fill="#333333" d="M100.755,9.975h0.725c-0.611,0.761-1.176,1.294-1.695,1.6c-0.738,0.428-1.579,0.643-2.522,0.643
		c-0.998,0-1.918-0.236-2.762-0.708c-0.843-0.472-1.5-1.116-1.972-1.932c-0.472-0.816-0.708-1.708-0.708-2.675
		c0-0.98,0.238-1.893,0.714-2.736c0.476-0.844,1.125-1.5,1.945-1.967s1.718-0.701,2.693-0.701c1.376,0,2.539,0.441,3.486,1.324
		c0.948,0.883,1.422,1.91,1.422,3.082c0,0.853-0.197,1.588-0.591,2.207c-0.395,0.618-0.929,1.098-1.604,1.44
		c-0.515,0.265-0.955,0.397-1.32,0.397c-0.265,0-0.474-0.071-0.629-0.212c-0.119-0.105-0.18-0.287-0.185-0.547
		c-0.155,0.196-0.368,0.36-0.639,0.492s-0.552,0.198-0.844,0.198c-0.656,0-1.198-0.227-1.626-0.681
		c-0.429-0.454-0.643-1.055-0.643-1.803c0-0.808,0.259-1.544,0.778-2.211c0.52-0.666,1.234-0.999,2.145-0.999
		c0.4,0,0.736,0.075,1.007,0.226c0.271,0.15,0.527,0.412,0.768,0.786l0.18-0.943h0.74l-0.793,4.471
		c-0.023,0.146-0.034,0.24-0.034,0.281c0,0.106,0.032,0.19,0.096,0.25s0.146,0.09,0.246,0.09c0.269,0,0.619-0.156,1.049-0.469
		s0.766-0.714,1.005-1.204s0.359-1.034,0.359-1.632c0-1.159-0.449-2.119-1.347-2.881C99.363,2.454,98.342,2.1,97.139,2.1
		c-0.893,0-1.703,0.204-2.43,0.612s-1.301,0.983-1.723,1.724c-0.421,0.741-0.632,1.543-0.632,2.405c0,0.871,0.212,1.675,0.636,2.412
		c0.424,0.736,1.011,1.314,1.76,1.734s1.576,0.629,2.478,0.629c0.661,0,1.26-0.119,1.798-0.355S100.14,10.595,100.755,9.975z
		 M96.612,9.107c0.3,0,0.583-0.095,0.847-0.285c0.264-0.189,0.474-0.474,0.629-0.853c0.2-0.498,0.3-0.999,0.3-1.501
		c0-0.46-0.128-0.833-0.386-1.121c-0.258-0.287-0.591-0.431-1.001-0.431c-0.546,0-1.019,0.225-1.417,0.674
		c-0.399,0.45-0.598,1.01-0.598,1.681c0,0.562,0.151,1.008,0.455,1.338C95.743,8.941,96.133,9.107,96.612,9.107z"/>
	<path fill="#333333" d="M110.503,4.588h0.957v5.927c0,1.043-0.091,1.807-0.273,2.29c-0.25,0.684-0.686,1.21-1.306,1.579
		s-1.365,0.554-2.235,0.554c-0.638,0-1.211-0.09-1.719-0.271c-0.508-0.18-0.922-0.423-1.241-0.727
		c-0.319-0.304-0.613-0.749-0.882-1.333h1.039c0.283,0.492,0.648,0.857,1.095,1.094c0.447,0.237,1.001,0.355,1.663,0.355
		c0.652,0,1.203-0.122,1.653-0.364c0.449-0.243,0.77-0.549,0.961-0.917c0.192-0.368,0.288-0.962,0.288-1.782v-0.383
		c-0.36,0.456-0.801,0.806-1.321,1.049s-1.072,0.366-1.656,0.366c-0.685,0-1.328-0.17-1.93-0.509
		c-0.603-0.339-1.067-0.796-1.396-1.371s-0.493-1.206-0.493-1.894s0.171-1.33,0.513-1.924s0.815-1.065,1.42-1.412
		s1.242-0.52,1.913-0.52c0.557,0,1.075,0.115,1.557,0.345s0.945,0.609,1.393,1.138V4.588z M107.68,5.32
		c-0.542,0-1.046,0.131-1.511,0.393s-0.83,0.625-1.094,1.087s-0.396,0.963-0.396,1.5c0,0.816,0.273,1.49,0.82,2.023
		s1.255,0.8,2.126,0.8c0.879,0,1.587-0.264,2.123-0.793s0.803-1.224,0.803-2.085c0-0.561-0.123-1.061-0.369-1.5
		s-0.595-0.787-1.046-1.042S108.199,5.32,107.68,5.32z"/>
	<path fill="#333333" d="M113.504,4.588h0.957v1.285c0.333-0.474,0.675-0.82,1.026-1.039c0.484-0.292,0.993-0.438,1.526-0.438
		c0.36,0,0.703,0.071,1.026,0.212c0.324,0.141,0.589,0.329,0.794,0.564c0.206,0.235,0.383,0.571,0.534,1.008
		c0.318-0.583,0.716-1.026,1.193-1.33s0.991-0.455,1.541-0.455c0.514,0,0.967,0.13,1.361,0.39c0.393,0.26,0.685,0.622,0.876,1.087
		s0.287,1.162,0.287,2.092v4.061h-0.978V7.965c0-0.797-0.057-1.346-0.17-1.644c-0.113-0.298-0.308-0.539-0.583-0.721
		s-0.603-0.273-0.984-0.273c-0.463,0-0.887,0.137-1.271,0.41c-0.384,0.273-0.664,0.638-0.841,1.094s-0.266,1.217-0.266,2.283v2.912
		h-0.957V8.218c0-0.898-0.056-1.507-0.167-1.829s-0.307-0.579-0.584-0.772s-0.608-0.291-0.991-0.291c-0.442,0-0.855,0.133-1.241,0.4
		s-0.67,0.625-0.854,1.077s-0.277,1.142-0.277,2.071v3.151h-0.957V4.588z"/>
	<path fill="#333333" d="M134.053,4.588v7.438h-0.943v-1.278c-0.401,0.488-0.851,0.854-1.35,1.101s-1.045,0.369-1.637,0.369
		c-1.053,0-1.952-0.382-2.697-1.145s-1.118-1.692-1.118-2.786c0-1.071,0.376-1.987,1.128-2.748s1.657-1.142,2.714-1.142
		c0.611,0,1.163,0.13,1.658,0.39s0.929,0.649,1.302,1.169V4.588H134.053z M130.228,5.32c-0.533,0-1.024,0.131-1.475,0.393
		s-0.809,0.629-1.075,1.103c-0.266,0.473-0.399,0.974-0.399,1.502c0,0.523,0.134,1.024,0.403,1.502
		c0.269,0.478,0.629,0.85,1.082,1.116c0.453,0.266,0.939,0.399,1.458,0.399c0.523,0,1.02-0.132,1.489-0.396
		c0.469-0.264,0.829-0.622,1.082-1.072c0.252-0.451,0.379-0.958,0.379-1.523c0-0.86-0.283-1.58-0.85-2.158
		S131.057,5.32,130.228,5.32z"/>
	<path fill="#333333" d="M136.538,1.526c0.218,0,0.404,0.078,0.558,0.232s0.231,0.342,0.231,0.561c0,0.214-0.077,0.399-0.231,0.554
		s-0.34,0.232-0.558,0.232c-0.213,0-0.397-0.078-0.551-0.232s-0.231-0.339-0.231-0.554c0-0.219,0.077-0.406,0.231-0.561
		S136.324,1.526,136.538,1.526z M136.062,4.588h0.957v7.438h-0.957V4.588z"/>
	<path fill="#333333" d="M138.865,1.717h0.957v10.309h-0.957V1.717z"/>
	<path fill="#333333" d="M142.864,10.522c0.232,0,0.431,0.082,0.595,0.246s0.246,0.365,0.246,0.602c0,0.232-0.082,0.432-0.246,0.598
		s-0.362,0.25-0.595,0.25s-0.431-0.083-0.595-0.25s-0.246-0.366-0.246-0.598c0-0.237,0.082-0.438,0.246-0.602
		S142.632,10.522,142.864,10.522z"/>
	<path fill="#333333" d="M152.906,6.133l-0.759,0.472c-0.655-0.871-1.55-1.306-2.684-1.306c-0.906,0-1.658,0.292-2.256,0.874
		s-0.898,1.291-0.898,2.124c0,0.542,0.138,1.052,0.413,1.53c0.275,0.478,0.653,0.849,1.133,1.113
		c0.48,0.264,1.019,0.396,1.615,0.396c1.093,0,1.985-0.435,2.677-1.306l0.759,0.499c-0.355,0.535-0.833,0.951-1.432,1.246
		c-0.599,0.295-1.282,0.443-2.047,0.443c-1.176,0-2.151-0.374-2.926-1.121s-1.162-1.657-1.162-2.728c0-0.72,0.181-1.389,0.543-2.006
		s0.86-1.1,1.494-1.446s1.342-0.52,2.126-0.52c0.492,0,0.967,0.075,1.425,0.226s0.847,0.346,1.166,0.588S152.683,5.76,152.906,6.133
		z"/>
	<path fill="#333333" d="M158.266,4.397c1.146,0,2.096,0.415,2.849,1.244c0.685,0.756,1.027,1.652,1.027,2.687
		c0,1.039-0.362,1.947-1.085,2.724c-0.724,0.777-1.654,1.166-2.791,1.166c-1.142,0-2.074-0.389-2.797-1.166
		s-1.085-1.685-1.085-2.724c0-1.03,0.342-1.923,1.027-2.68C156.163,4.814,157.115,4.397,158.266,4.397z M158.262,5.333
		c-0.796,0-1.479,0.294-2.051,0.882s-0.857,1.299-0.857,2.133c0,0.538,0.13,1.039,0.391,1.504s0.613,0.824,1.056,1.077
		c0.444,0.253,0.931,0.379,1.461,0.379c0.53,0,1.017-0.126,1.461-0.379c0.443-0.253,0.796-0.612,1.057-1.077
		c0.26-0.465,0.391-0.966,0.391-1.504c0-0.834-0.287-1.545-0.861-2.133C159.736,5.627,159.053,5.333,158.262,5.333z"/>
	<path fill="#333333" d="M163.905,4.588h0.957v1.285c0.333-0.474,0.675-0.82,1.026-1.039c0.483-0.292,0.992-0.438,1.526-0.438
		c0.36,0,0.702,0.071,1.026,0.212s0.589,0.329,0.794,0.564s0.384,0.571,0.534,1.008c0.318-0.583,0.716-1.026,1.193-1.33
		s0.991-0.455,1.541-0.455c0.514,0,0.968,0.13,1.36,0.39c0.394,0.26,0.686,0.622,0.877,1.087c0.19,0.465,0.286,1.162,0.286,2.092
		v4.061h-0.978V7.965c0-0.797-0.057-1.346-0.17-1.644c-0.114-0.298-0.309-0.539-0.583-0.721s-0.603-0.273-0.984-0.273
		c-0.464,0-0.887,0.137-1.271,0.41s-0.665,0.638-0.842,1.094s-0.266,1.217-0.266,2.283v2.912h-0.957V8.218
		c0-0.898-0.056-1.507-0.167-1.829c-0.112-0.321-0.307-0.579-0.585-0.772s-0.608-0.291-0.991-0.291c-0.442,0-0.855,0.133-1.24,0.4
		c-0.386,0.267-0.67,0.625-0.855,1.077c-0.184,0.451-0.276,1.142-0.276,2.071v3.151h-0.957V4.588z"/>
</g>
<g>
</g>
<g>
</g>
<g>
</g>
<g>
</g>
<g>
</g>
<g>
</g>
</svg>
